<svg width="938" height="596.6181201804694" xmlns="http://www.w3.org/2000/svg">
 <!-- svg-source:excalidraw -->
 <defs>
  <style>@font-face {
        font-family: "Virgil";
        src: url("https://excalidraw.com/FG_Virgil.woff2");
      }
      @font-face {
        font-family: "Cascadia";
        src: url("https://excalidraw.com/Cascadia.woff2");
      }</style>
 </defs>
 <g>
  <title>background</title>
  <rect fill="#000000" id="canvas_background" height="598.61812" width="940" y="-1" x="-1"/>
 </g>
 <g>
  <title>Layer 1</title>
  <rect x="1" y="0" canvas="#000000" canvas-opacity="0" id="svg_1" fill="#ffffff" height="596.61812" width="938"/>
  <g id="svg_2">
   <path id="svg_3" fill="none" stroke="#000000" d="m771,303.61813c9.23851,0 18.47702,0 26,0m-26,0c7.23253,0 14.46505,0 26,0m0,0c0,70.12175 0,140.24349 0,201m0,-201c0,58.09878 0,116.19755 0,201m0,0c-7.3716,0 -14.74321,0 -26,0m26,0c-5.56627,0 -11.13253,0 -26,0m0,0c0,-72.72548 0,-145.45096 0,-201m0,201c0,-60.84837 0,-121.69673 0,-201"/>
  </g>
  <g id="svg_4" transform="rotate(303.944, 707, 261.618)">
   <path id="svg_5" fill="none" stroke="#000000" d="m694,161.11812c8.12798,0 16.25595,0 26,0m-26,0c7.67938,0 15.35876,0 26,0m0,0c0,55.86786 0,111.73572 0,201m0,-201c0,44.53337 0,89.06673 0,201m0,0c-7.83573,0 -15.67145,0 -26,0m26,0c-10.15707,0 -20.31414,0 -26,0m0,0c0,-77.93703 0,-155.87406 0,-201m0,201c0,-72.81188 0,-145.62376 0,-201"/>
  </g>
  <g id="svg_6" transform="rotate(212.442, 605, 250.618)">
   <path id="svg_7" fill="none" stroke="#000000" d="m593.66504,189.27699c7.23442,0 14.46884,0 22.66992,0m-22.66992,0c7.10687,0 14.21374,0 22.66992,0m0,0c0,45.13241 0,90.26483 0,122.68225m0,-122.68225c0,39.90617 0,79.81235 0,122.68225m0,0c-7.99634,0 -15.99268,0 -22.66992,0m22.66992,0c-7.90329,0 -15.80657,0 -22.66992,0m0,0c0,-31.39637 0,-62.79274 0,-122.68225m0,122.68225c0,-39.02156 0,-78.04312 0,-122.68225"/>
  </g>
  <g id="svg_8">
   <path id="svg_9" fill="#000000" stroke-width="0" d="m568,302.61813c2.23904,-0.14044 5.26518,1.05853 7.07066,2.57351c1.80548,1.51498 3.35296,4.19528 3.76223,6.51636c0.40926,2.32108 -0.12817,5.36901 -1.30661,7.41013c-1.17844,2.04112 -3.54931,4.03052 -5.76406,4.83662c-2.21475,0.8061 -5.30969,0.8061 -7.52444,0c-2.21475,-0.8061 -4.58562,-2.7955 -5.76406,-4.83662c-1.17844,-2.04112 -1.71587,-5.08905 -1.30661,-7.41013c0.40927,-2.32108 1.95675,-5.00138 3.76223,-6.51636c1.80548,-1.51498 5.89222,-2.18126 7.07066,-2.57351c1.17844,-0.39225 0,0.03667 0,0.22m0,-0.22c2.23904,-0.14044 5.26518,1.05853 7.07066,2.57351c1.80548,1.51498 3.35296,4.19528 3.76223,6.51636c0.40926,2.32108 -0.12817,5.36901 -1.30661,7.41013c-1.17844,2.04112 -3.54931,4.03052 -5.76406,4.83662c-2.21475,0.8061 -5.30969,0.8061 -7.52444,0c-2.21475,-0.8061 -4.58562,-2.7955 -5.76406,-4.83662c-1.17844,-2.04112 -1.71587,-5.08905 -1.30661,-7.41013c0.40927,-2.32108 1.95675,-5.00138 3.76223,-6.51636c1.80548,-1.51498 5.89222,-2.18126 7.07066,-2.57351c1.17844,-0.39225 0,0.03667 0,0.22"/>
   <path id="svg_10" fill="none" stroke="#000000" d="m568,302.61813c2.23904,-0.14044 5.26518,1.05853 7.07066,2.57351c1.80548,1.51498 3.35296,4.19528 3.76223,6.51636c0.40926,2.32108 -0.12817,5.36901 -1.30661,7.41013c-1.17844,2.04112 -3.54931,4.03052 -5.76406,4.83662c-2.21475,0.8061 -5.30969,0.8061 -7.52444,0c-2.21475,-0.8061 -4.58562,-2.7955 -5.76406,-4.83662c-1.17844,-2.04112 -1.71587,-5.08905 -1.30661,-7.41013c0.40927,-2.32108 1.95675,-5.00138 3.76223,-6.51636c1.80548,-1.51498 5.89222,-2.18126 7.07066,-2.57351c1.17844,-0.39225 0,0.03667 0,0.22m0,-0.22c2.23904,-0.14044 5.26518,1.05853 7.07066,2.57351c1.80548,1.51498 3.35296,4.19528 3.76223,6.51636c0.40926,2.32108 -0.12817,5.36901 -1.30661,7.41013c-1.17844,2.04112 -3.54931,4.03052 -5.76406,4.83662c-2.21475,0.8061 -5.30969,0.8061 -7.52444,0c-2.21475,-0.8061 -4.58562,-2.7955 -5.76406,-4.83662c-1.17844,-2.04112 -1.71587,-5.08905 -1.30661,-7.41013c0.40927,-2.32108 1.95675,-5.00138 3.76223,-6.51636c1.80548,-1.51498 5.89222,-2.18126 7.07066,-2.57351c1.17844,-0.39225 0,0.03667 0,0.22"/>
  </g>
  <g id="svg_11">
   <g id="svg_12" transform="rotate(349.77, 635.457, 266.09)">
    <path id="svg_13" fill="none" stroke="#c92a2a" d="m754.95654,351.58994c-39.83333,-28.5 -199.16667,-142.5 -239,-171m239,171c-39.83333,-28.5 -199.16667,-142.5 -239,-171"/>
   </g>
  </g>
  <g id="svg_14">
   <g id="svg_15" transform="rotate(115.118, 636.395, 403.609)">
    <path id="svg_16" fill="none" stroke="#c92a2a" d="m755.89453,489.10947c-39.83333,-28.5 -199.16667,-142.5 -239,-171m239,171c-39.83333,-28.5 -199.16667,-142.5 -239,-171"/>
   </g>
  </g>
  <g id="svg_17">
   <path id="svg_18" fill="none" stroke="#c92a2a" d="m691.5,102.61812c18.7663,-3.72977 40.16622,2.65694 59.262,7.7138c19.09578,5.05685 38.14769,12.85061 55.31267,22.62732c17.16498,9.77671 33.58693,22.1879 47.6772,36.03293c14.09028,13.84502 26.78787,30.04654 36.86444,47.03723c10.07656,16.99068 18.20361,35.90283 23.59495,54.90688c5.39133,19.00405 8.40624,39.36648 8.75306,59.11744c0.34682,19.75095 -1.95134,40.20667 -6.67216,59.38829c-4.72081,19.18162 -12.17888,38.36743 -21.65272,55.70141c-9.47384,17.33398 -21.5948,33.9713 -35.19031,48.30248c-13.59551,14.33117 -29.57161,27.31126 -46.38276,37.68457c-16.81115,10.37332 -35.5777,18.83115 -54.48416,24.55531c-18.90647,5.72415 -39.21283,9.0961 -58.95465,9.78962c-19.74183,0.69353 -40.23474,-1.24514 -59.49629,-5.62845c-19.26154,-4.38332 -38.57534,-11.5034 -56.07298,-20.67145c-17.49763,-9.16805 -34.3452,-20.99504 -48.91286,-34.33685c-14.56766,-13.34181 -27.82623,-29.08755 -38.4931,-45.71399c-10.66686,-16.62644 -19.45288,-35.24159 -25.50809,-54.04465c-6.05521,-18.80306 -9.78315,-39.04708 -10.82317,-58.77369c-1.04002,-19.7266 0.53855,-40.2504 4.58302,-59.58593c4.04447,-19.33553 10.82437,-38.77135 19.6838,-56.42726c8.85943,-17.6559 20.38882,-34.70851 33.4728,-49.50817c13.08399,-14.79965 28.59453,-28.33263 45.03113,-39.28976c16.4366,-10.95713 34.89463,-20.06861 53.58848,-26.45301c18.69385,-6.3844 46.10466,-9.7827 58.57461,-11.85338c12.46995,-2.07068 13.53757,-1.24724 16.24509,-0.57069c2.70752,0.67655 0,0.77167 0,4.63m0,-4.63c18.7663,-3.72977 40.16622,2.65694 59.262,7.7138c19.09578,5.05685 38.14769,12.85061 55.31267,22.62732c17.16498,9.77671 33.58693,22.1879 47.6772,36.03293c14.09028,13.84502 26.78787,30.04654 36.86444,47.03723c10.07656,16.99068 18.20361,35.90283 23.59495,54.90688c5.39133,19.00405 8.40624,39.36648 8.75306,59.11744c0.34682,19.75095 -1.95134,40.20667 -6.67216,59.38829c-4.72081,19.18162 -12.17888,38.36743 -21.65272,55.70141c-9.47384,17.33398 -21.5948,33.9713 -35.19031,48.30248c-13.59551,14.33117 -29.57161,27.31126 -46.38276,37.68457c-16.81115,10.37332 -35.5777,18.83115 -54.48416,24.55531c-18.90647,5.72415 -39.21283,9.0961 -58.95465,9.78962c-19.74183,0.69353 -40.23474,-1.24514 -59.49629,-5.62845c-19.26154,-4.38332 -38.57534,-11.5034 -56.07298,-20.67145c-17.49763,-9.16805 -34.3452,-20.99504 -48.91286,-34.33685c-14.56766,-13.34181 -27.82623,-29.08755 -38.4931,-45.71399c-10.66686,-16.62644 -19.45288,-35.24159 -25.50809,-54.04465c-6.05521,-18.80306 -9.78315,-39.04708 -10.82317,-58.77369c-1.04002,-19.7266 0.53855,-40.2504 4.58302,-59.58593c4.04447,-19.33553 10.82437,-38.77135 19.6838,-56.42726c8.85943,-17.6559 20.38882,-34.70851 33.4728,-49.50817c13.08399,-14.79965 28.59453,-28.33263 45.03113,-39.28976c16.4366,-10.95713 34.89463,-20.06861 53.58848,-26.45301c18.69385,-6.3844 46.10466,-9.7827 58.57461,-11.85338c12.46995,-2.07068 13.53757,-1.24724 16.24509,-0.57069c2.70752,0.67655 0,0.77167 0,4.63"/>
  </g>
  <g id="svg_19">
   <path id="svg_20" fill="#fff" stroke-width="0" d="m806,105.61812l122,0l0,481l-122,0"/>
   <path id="svg_21" fill="none" stroke="#fff" d="m806,105.61812c30.95698,0 61.91396,0 122,0m-122,0c43.74111,0 87.48222,0 122,0m0,0c0,168.70712 0,337.41423 0,481m0,-481c0,135.99289 0,271.98579 0,481m0,0c-42.514,0 -85.028,0 -122,0m122,0c-25.24889,0 -50.49779,0 -122,0m0,0c0,-131.28681 0,-262.57363 0,-481m0,481c0,-154.88946 0,-309.77891 0,-481"/>
  </g>
  <g id="svg_22" transform="rotate(303.97, 718.743, 156.855)">
   <path id="svg_23" fill="#fff" stroke-width="0" d="m645.89526,2.15503l145.69549,0l0,309.4l-145.69549,0"/>
   <path id="svg_24" fill="none" stroke="#fff" d="m645.89526,2.15503c38.45825,0 76.9165,0 145.69549,0m-145.69549,0c42.46069,0 84.92139,0 145.69549,0m0,0c0,86.98448 0,173.96896 0,309.4m0,-309.4c0,113.86713 0,227.73427 0,309.4m0,0c-54.605,0 -109.20999,0 -145.69549,0m145.69549,0c-39.3821,0 -78.7642,0 -145.69549,0m0,0c0,-93.95725 0,-187.91449 0,-309.4m0,309.4c0,-121.1173 0,-242.23459 0,-309.4"/>
  </g>
  <g id="svg_25" transform="rotate(270.535, 654.407, 539.042)">
   <path id="svg_26" fill="#fff" stroke-width="0" d="m625.13702,384.3425l58.54042,0l0,309.4l-58.54042,0"/>
   <path id="svg_27" fill="none" stroke="#fff" d="m625.13702,384.3425c12.45441,0 24.90881,0 58.54042,0m-58.54042,0c21.68806,0 43.37612,0 58.54042,0m0,0c0,118.98821 0,237.97642 0,309.4m0,-309.4c0,89.3489 0,178.69779 0,309.4m0,0c-15.91099,0 -31.82198,0 -58.54042,0m58.54042,0c-20.44948,0 -40.89896,0 -58.54042,0m0,0c0,-119.03517 0,-238.07034 0,-309.4m0,309.4c0,-83.14495 0,-166.28991 0,-309.4"/>
  </g>
  <g id="svg_28" transform="rotate(270.535, 572, 506.618)">
   <path id="svg_29" fill="#fff" stroke-width="0" d="m542.7298,351.91812l58.54042,0l0,309.4l-58.54042,0"/>
   <path id="svg_30" fill="none" stroke="#fff" d="m542.7298,351.91812c19.88094,0 39.76188,0 58.54042,0m-58.54042,0c14.13609,0 28.27218,0 58.54042,0m0,0c0,122.32877 0,244.65755 0,309.4m0,-309.4c0,80.66844 0,161.33688 0,309.4m0,0c-21.19198,0 -42.38396,0 -58.54042,0m58.54042,0c-19.75471,0 -39.50942,0 -58.54042,0m0,0c0,-84.80667 0,-169.61335 0,-309.4m0,309.4c0,-82.4131 0,-164.82619 0,-309.4"/>
  </g>
  <g id="svg_31" transform="rotate(270.535, 533.948, 172.636)">
   <path id="svg_32" fill="#fff" stroke-width="0" d="m504.67822,126.88952l58.54042,0l0,91.49363l-58.54042,0"/>
   <path id="svg_33" fill="none" stroke="#fff" d="m504.67822,126.88952c17.63877,0 35.27755,0 58.54042,0m-58.54042,0c18.53496,0 37.06991,0 58.54042,0m0,0c0,27.06484 0,54.12969 0,91.49363m0,-91.49363c0,28.13815 0,56.2763 0,91.49363m0,0c-16.21779,0 -32.43557,0 -58.54042,0m58.54042,0c-22.09061,0 -44.18121,0 -58.54042,0m0,0c0,-23.22074 0,-46.44147 0,-91.49363m0,91.49363c0,-28.27559 0,-56.55118 0,-91.49363"/>
  </g>
  <g id="svg_34">
   <path id="svg_35" fill="none" stroke="#c92a2a" d="m10,203.61812c118.23155,0 236.46309,0 403,0m-403,0c124.63316,0 249.26632,0 403,0m0,0c0,95.70073 0,191.40145 0,277m0,-277c0,69.79772 0,139.59544 0,277m0,0c-94.88516,0 -189.77033,0 -403,0m403,0c-136.56246,0 -273.12492,0 -403,0m0,0c0,-90.50995 0,-181.0199 0,-277m0,277c0,-61.83231 0,-123.66462 0,-277"/>
  </g>
  <g id="svg_36">
   <text id="svg_37" text-anchor="start" fill="#c92a2a" font-size="20px" font-family="Helvetica, Segoe UI Emoji" y="139.11812" x="309">Field of vision</text>
  </g>
  <g id="svg_38">
   <g id="svg_39">
    <path id="svg_40" fill="none" stroke="#c92a2a" d="m378,148.61812c-3.66667,7 -18.33333,35 -22,42m22,-42c-3.66667,7 -18.33333,35 -22,42"/>
   </g>
   <g id="svg_41">
    <path id="svg_42" fill="none" stroke="#c92a2a" d="m359.1542,167.12235c-0.92151,6.86435 -1.84302,13.7287 -3.1542,23.49577m3.1542,-23.49577c-0.69015,5.14091 -1.38029,10.28182 -3.1542,23.49577"/>
   </g>
   <g id="svg_43">
    <path id="svg_44" fill="none" stroke="#c92a2a" d="m373.51904,174.6468c-5.11823,4.66606 -10.23646,9.33212 -17.51904,15.97132m17.51904,-15.97132c-3.83319,3.49454 -7.66638,6.98909 -17.51904,15.97132"/>
   </g>
  </g>
  <g id="svg_45">
   <g id="svg_46">
    <path id="svg_47" fill="none" stroke="#c92a2a" d="m417,146.61812c10.16667,10 50.83333,50 61,60m-61,-60c10.16667,10 50.83333,50 61,60"/>
   </g>
   <g id="svg_48">
    <path id="svg_49" fill="none" stroke="#c92a2a" d="m450.70692,194.1647c5.84893,2.66878 11.69787,5.33756 27.29308,12.45342m-27.29308,-12.45342c8.72942,3.9831 17.45884,7.96621 27.29308,12.45342"/>
   </g>
   <g id="svg_50">
    <path id="svg_51" fill="none" stroke="#c92a2a" d="m465.09719,179.53459c2.76508,5.80403 5.53017,11.60805 12.90281,27.08353m-12.90281,-27.08353c4.12684,8.6624 8.25367,17.3248 12.90281,27.08353"/>
   </g>
  </g>
  <g id="svg_52">
   <path id="svg_53" fill="none" stroke="#000" d="m198,204.61812c9.29435,0 18.5887,0 24,0m-24,0c8.19549,0 16.39097,0 24,0m0,0c0,40.78136 0,81.56272 0,114m0,-114c0,28.48569 0,56.97137 0,114m0,0c-6.53222,0 -13.06444,0 -24,0m24,0c-4.81049,0 -9.62098,0 -24,0m0,0c0,-28.80149 0,-57.60298 0,-114m0,114c0,-29.70543 0,-59.41086 0,-114"/>
  </g>
  <g id="svg_54" transform="rotate(9.16235, 232, 321.618)">
   <path id="svg_55" fill="#000" stroke-width="0" d="m108,311.61813l248,0l0,20l-248,0"/>
   <path id="svg_56" fill="none" stroke="#000" d="m108,311.61813c67.01182,0 134.02364,0 248,0m-248,0c71.41799,0 142.83598,0 248,0m0,0c0,5.12035 0,10.2407 0,20m0,-20c0,4.00121 0,8.00242 0,20m0,0c-68.65736,0 -137.31472,0 -248,0m248,0c-87.28204,0 -174.56408,0 -248,0m0,0c0,-4.67282 0,-9.34565 0,-20m0,20c0,-4.39254 0,-8.78507 0,-20"/>
  </g>
  <g id="svg_57">
   <path id="svg_58" fill="#000000" stroke-width="0" d="m572,297.61813c2.23904,-0.14044 5.26518,1.05853 7.07066,2.57351c1.80548,1.51498 3.35296,4.19528 3.76223,6.51636c0.40926,2.32108 -0.12817,5.36901 -1.30661,7.41013c-1.17844,2.04112 -3.54931,4.03052 -5.76406,4.83662c-2.21475,0.8061 -5.30969,0.8061 -7.52444,0c-2.21475,-0.8061 -4.58562,-2.7955 -5.76406,-4.83662c-1.17844,-2.04112 -1.71587,-5.08905 -1.30661,-7.41013c0.40927,-2.32108 1.95675,-5.00138 3.76223,-6.51636c1.80548,-1.51498 5.89222,-2.18126 7.07066,-2.57351c1.17844,-0.39225 0,0.03667 0,0.22m0,-0.22c2.23904,-0.14044 5.26518,1.05853 7.07066,2.57351c1.80548,1.51498 3.35296,4.19528 3.76223,6.51636c0.40926,2.32108 -0.12817,5.36901 -1.30661,7.41013c-1.17844,2.04112 -3.54931,4.03052 -5.76406,4.83662c-2.21475,0.8061 -5.30969,0.8061 -7.52444,0c-2.21475,-0.8061 -4.58562,-2.7955 -5.76406,-4.83662c-1.17844,-2.04112 -1.71587,-5.08905 -1.30661,-7.41013c0.40927,-2.32108 1.95675,-5.00138 3.76223,-6.51636c1.80548,-1.51498 5.89222,-2.18126 7.07066,-2.57351c1.17844,-0.39225 0,0.03667 0,0.22"/>
   <path id="svg_59" fill="none" stroke="#000000" d="m572,297.61813c2.23904,-0.14044 5.26518,1.05853 7.07066,2.57351c1.80548,1.51498 3.35296,4.19528 3.76223,6.51636c0.40926,2.32108 -0.12817,5.36901 -1.30661,7.41013c-1.17844,2.04112 -3.54931,4.03052 -5.76406,4.83662c-2.21475,0.8061 -5.30969,0.8061 -7.52444,0c-2.21475,-0.8061 -4.58562,-2.7955 -5.76406,-4.83662c-1.17844,-2.04112 -1.71587,-5.08905 -1.30661,-7.41013c0.40927,-2.32108 1.95675,-5.00138 3.76223,-6.51636c1.80548,-1.51498 5.89222,-2.18126 7.07066,-2.57351c1.17844,-0.39225 0,0.03667 0,0.22m0,-0.22c2.23904,-0.14044 5.26518,1.05853 7.07066,2.57351c1.80548,1.51498 3.35296,4.19528 3.76223,6.51636c0.40926,2.32108 -0.12817,5.36901 -1.30661,7.41013c-1.17844,2.04112 -3.54931,4.03052 -5.76406,4.83662c-2.21475,0.8061 -5.30969,0.8061 -7.52444,0c-2.21475,-0.8061 -4.58562,-2.7955 -5.76406,-4.83662c-1.17844,-2.04112 -1.71587,-5.08905 -1.30661,-7.41013c0.40927,-2.32108 1.95675,-5.00138 3.76223,-6.51636c1.80548,-1.51498 5.89222,-2.18126 7.07066,-2.57351c1.17844,-0.39225 0,0.03667 0,0.22"/>
  </g>
  <g id="svg_60">
   <path id="svg_61" fill="#000000" stroke-width="0" d="m570,299.61813c2.23904,-0.14044 5.26518,1.05853 7.07066,2.57351c1.80548,1.51498 3.35296,4.19528 3.76223,6.51636c0.40926,2.32108 -0.12817,5.36901 -1.30661,7.41013c-1.17844,2.04112 -3.54931,4.03052 -5.76406,4.83662c-2.21475,0.8061 -5.30969,0.8061 -7.52444,0c-2.21475,-0.8061 -4.58562,-2.7955 -5.76406,-4.83662c-1.17844,-2.04112 -1.71587,-5.08905 -1.30661,-7.41013c0.40927,-2.32108 1.95675,-5.00138 3.76223,-6.51636c1.80548,-1.51498 5.89222,-2.18126 7.07066,-2.57351c1.17844,-0.39225 0,0.03667 0,0.22m0,-0.22c2.23904,-0.14044 5.26518,1.05853 7.07066,2.57351c1.80548,1.51498 3.35296,4.19528 3.76223,6.51636c0.40926,2.32108 -0.12817,5.36901 -1.30661,7.41013c-1.17844,2.04112 -3.54931,4.03052 -5.76406,4.83662c-2.21475,0.8061 -5.30969,0.8061 -7.52444,0c-2.21475,-0.8061 -4.58562,-2.7955 -5.76406,-4.83662c-1.17844,-2.04112 -1.71587,-5.08905 -1.30661,-7.41013c0.40927,-2.32108 1.95675,-5.00138 3.76223,-6.51636c1.80548,-1.51498 5.89222,-2.18126 7.07066,-2.57351c1.17844,-0.39225 0,0.03667 0,0.22"/>
   <path id="svg_62" fill="none" stroke="#000000" d="m570,299.61813c2.23904,-0.14044 5.26518,1.05853 7.07066,2.57351c1.80548,1.51498 3.35296,4.19528 3.76223,6.51636c0.40926,2.32108 -0.12817,5.36901 -1.30661,7.41013c-1.17844,2.04112 -3.54931,4.03052 -5.76406,4.83662c-2.21475,0.8061 -5.30969,0.8061 -7.52444,0c-2.21475,-0.8061 -4.58562,-2.7955 -5.76406,-4.83662c-1.17844,-2.04112 -1.71587,-5.08905 -1.30661,-7.41013c0.40927,-2.32108 1.95675,-5.00138 3.76223,-6.51636c1.80548,-1.51498 5.89222,-2.18126 7.07066,-2.57351c1.17844,-0.39225 0,0.03667 0,0.22m0,-0.22c2.23904,-0.14044 5.26518,1.05853 7.07066,2.57351c1.80548,1.51498 3.35296,4.19528 3.76223,6.51636c0.40926,2.32108 -0.12817,5.36901 -1.30661,7.41013c-1.17844,2.04112 -3.54931,4.03052 -5.76406,4.83662c-2.21475,0.8061 -5.30969,0.8061 -7.52444,0c-2.21475,-0.8061 -4.58562,-2.7955 -5.76406,-4.83662c-1.17844,-2.04112 -1.71587,-5.08905 -1.30661,-7.41013c0.40927,-2.32108 1.95675,-5.00138 3.76223,-6.51636c1.80548,-1.51498 5.89222,-2.18126 7.07066,-2.57351c1.17844,-0.39225 0,0.03667 0,0.22"/>
  </g>
  <g id="svg_63">
   <text id="svg_64" text-anchor="start" fill="#000" font-size="20px" font-family="Helvetica, Segoe UI Emoji" y="437.11813" x="243">Part</text>
  </g>
  <g id="svg_65">
   <g id="svg_66">
    <path id="svg_67" fill="none" stroke="#000" d="m263,402.61813c1,-9.83333 5,-49.16667 6,-59m-6,59c1,-9.83333 5,-49.16667 6,-59"/>
   </g>
   <g id="svg_68">
    <path id="svg_69" fill="none" stroke="#000" d="m276.27052,372.36512c-2.84694,-11.25654 -5.69388,-22.51308 -7.27052,-28.74699m7.27052,28.74699c-2.02347,-8.00063 -4.04695,-16.00125 -7.27052,-28.74699"/>
   </g>
   <g id="svg_70">
    <path id="svg_71" fill="none" stroke="#000" d="m256.09133,370.313c5.05468,-10.45299 10.10937,-20.90598 12.90867,-26.69487m-12.90867,26.69487c3.59263,-7.4295 7.18527,-14.859 12.90867,-26.69487"/>
   </g>
  </g>
  <g id="svg_72">
   <g id="svg_73">
    <path id="svg_74" fill="none" stroke="#000" d="m300,433.61813c40.83333,-18.16667 204.16667,-90.83333 245,-109m-245,109c40.83333,-18.16667 204.16667,-90.83333 245,-109"/>
   </g>
   <g id="svg_75">
    <path id="svg_76" fill="none" stroke="#000" d="m523.41405,345.45192c7.7579,-7.48757 15.5158,-14.97515 21.58595,-20.83379m-21.58595,20.83379c7.70684,-7.43829 15.41368,-14.87659 21.58595,-20.83379"/>
   </g>
   <g id="svg_77">
    <path id="svg_78" fill="none" stroke="#000" d="m515.0725,326.70256c10.75582,-0.74913 21.51163,-1.49827 29.9275,-2.08443m-29.9275,2.08443c10.68502,-0.7442 21.37005,-1.48841 29.9275,-2.08443"/>
   </g>
  </g>
  <ellipse ry="8.5" rx="8.5" id="svg_79" cy="280.75906" cx="196" stroke-width="NaN" fill="#FFFF91"/>
  <ellipse ry="8.5" rx="8.5" id="svg_80" cy="280.75906" cx="222" stroke-width="NaN" fill="#FFFF91"/>
  <ellipse ry="8.5" rx="8.5" id="svg_81" cy="295.75906" cx="589" stroke-width="NaN" fill="#FFFF91"/>
  <text xml:space="preserve" text-anchor="start" font-family="Helvetica, Arial, sans-serif" font-size="24" id="svg_82" y="274.25906" x="374.5" stroke-width="0" fill="#000000">LEDs</text>
  <rect transform="rotate(-8.24391, 299.712, 277.17)" id="svg_88" height="0.33718" width="127.02972" y="277.00157" x="236.19667" stroke-opacity="null" stroke-width="NaN" stroke="null" fill="#000000"/>
  <rect transform="rotate(7.70447, 507.712, 279.17)" id="svg_89" height="1.24661" width="141.17147" y="278.54684" x="437.1258" stroke-opacity="null" stroke-width="NaN" stroke="null" fill="#000000"/>
  <text xml:space="preserve" text-anchor="start" font-family="Helvetica, Arial, sans-serif" font-size="24" id="svg_90" y="422.25906" x="673.5" fill-opacity="null" stroke-opacity="null" stroke-width="0" stroke="null" fill="#000000">Camera</text>
  <rect transform="rotate(128.626, 741.711, 368.17)" id="svg_91" height="1.60215" width="77.45424" y="367.36905" x="702.98441" stroke-opacity="null" stroke-width="NaN" stroke="null" fill="#000000"/>
 </g>
</svg>